# xmcd
#
# Track frame offsets:
#	150
#	8753
#	20596
#	33365
#	46541
#	58848
#	71267
#	82905
#	93132
#	104199
#	113328
#	128910
#	139457
#	152548
#	164714
#	178384
#	187328
#	196867
#	206016
#	215640
#
# Disc length: 3061 seconds
# Revision: 0
# Processed by: cddbd v1.5.2PL0 Copyright (c) Steve Scherf et al.
# Submitted via: dBpowerAMP V12.0
#
DISCID=1c0bf314
DTITLE=Various Artist - Jesus Rocked The Jukebox
DYEAR=2017
DGENRE=Gospel
TTITLE0=The Happyland Singers - Swingin' on the Golden Gate
TTITLE1=The Pilgrim Travelers - After While (Take 8)
TTITLE2=The Swan Silvertones - Mary Don't You Weep
TTITLE3=The Patterson Singers - Heavenly Father
TTITLE4=The Staple Singers - Sit Down Servant
TTITLE5=The Chosen Gospel Singers - Stay With Me Jesus
TTITLE6=The Soul Stirrers - Come and Go to That Land (Take 3)
TTITLE7=The Detroiters - Angels Watching Over Me
TTITLE8=Original Blind Boys of Alabama - I Can See Everybody's Mother
TTITLE9=The Harmonizing Four - Happy Home
TTITLE10=The Gable-airs - Move Upstairs
TTITLE11=The Highway QC's - Pray
TTITLE12=The Swan Silvertone Singers - How I Got Over
TTITLE13=The Staple Singers - Help Me Jesus
TTITLE14=The Swan Silvertones - Sign of the Judgement
TTITLE15=The Harmonizing Four - Hallelujah
TTITLE16=The Soul Stirrers - Sinner Run to Jesus (Take 1)
TTITLE17=The Silver Quintette - Father Don't Leave
TTITLE18=The Blind Boys of Alabama - He's Alright
TTITLE19=The Swan Silvertones - The Lord's Prayer
EXTD=
EXTT0=
EXTT1=
EXTT2=
EXTT3=
EXTT4=
EXTT5=
EXTT6=
EXTT7=
EXTT8=
EXTT9=
EXTT10=
EXTT11=
EXTT12=
EXTT13=
EXTT14=
EXTT15=
EXTT16=
EXTT17=
EXTT18=
EXTT19=
PLAYORDER=
